<svg fill="#000000" xmlns="http://www.w3.org/2000/svg"  viewBox="0 0 16 16" width="32px" height="32px"><path fill="none" stroke="#000000" stroke-miterlimit="10" d="M7.75,12.5h1.218c0,0,0.271-0.031,0.409-0.187C9.504,12.17,9.5,11.901,9.5,11.901s0.067-1.216,0.625-1.401c0.55-0.182,1.172,1.174,1.922,1.712c0.567,0.407,0.997,0.318,0.997,0.318l1.681-0.03c0,0,1.073-0.09,0.576-0.953c-0.041-0.07-0.246-0.678-1.446-1.844c-1.256-1.221-1.088-0.449,0.425-2.561c0.922-1.286,1.316-2.081,1.175-2.408C15.354,4.5,14.668,4.5,14.668,4.5l-2,0.015c0,0-0.168-0.024-0.292,0.054c-0.122,0.076-0.199,0.254-0.199,0.254s-0.357,0.495-0.833,1.342C10.34,7.95,9.938,7.469,9.774,7.359C9.391,7.101,9.488,6.5,9.488,5.768c0-1.731,0.251-1.952-0.488-2.139c-0.245-0.062-0.681-0.103-1.309-0.11C6.887,3.51,6.331,3.566,5.945,3.765C5.689,3.897,5.491,4.189,5.611,4.207c0.149,0.021,0.487,0.095,0.665,0.35C6.508,4.886,6.5,5.125,6.5,5.125s0.133,2.037-0.31,2.291C5.886,7.589,5.342,7.763,4.447,6.144c-0.459-0.83-0.806-1.248-0.806-1.248S3.575,4.725,3.455,4.633C3.31,4.522,3.109,4.5,3.109,4.5L0.965,4.501c0,0-0.322,0.009-0.439,0.156C0.42,4.788,0.517,5.057,0.517,5.057s1.678,3.536,3.578,5.607C5.84,12.562,7.75,12.5,7.75,12.5z"/></svg>